PathFileType	4	(X/Y/Z)	/Users/itak/Documents/Research/Walk-IL/dataset/trc/00007_00004.trc
DataRate	CameraRate	NumFrames	NumMarkers	Units	OrigDataRate	OrigDataStartFrame	OrigNumFrames
100.000000	100.000000	4	53	mm	100.000000	362	580
Frame#	Time	RPSI			LPSI			L3			STRN			T10			C7			CLAV			RBAK			LBAK			LSHO			LUPA			LAEL			LAOL			LWTS			LWPS			LFRA			LIFD			LHPS			LHTS			RSHO			RUPA			RAEL			RAOL			RWTS			RWPS			RFRA			RIFD			RHTS			RHPS			RBHD			LFHD			RFHD			LBHD			LHIP			RHIP			RASI			LASI			LKNE			LTHI			LANK			LTIP			LTOE			LMT1			LMT5			LHEE			RKNE			RTHI			RANK			RTIP			RTOE			RMT1			RMT5			RHEE			
		X1	Y1	Z1	X2	Y2	Z2	X3	Y3	Z3	X4	Y4	Z4	X5	Y5	Z5	X6	Y6	Z6	X7	Y7	Z7	X8	Y8	Z8	X9	Y9	Z9	X10	Y10	Z10	X11	Y11	Z11	X12	Y12	Z12	X13	Y13	Z13	X14	Y14	Z14	X15	Y15	Z15	X16	Y16	Z16	X17	Y17	Z17	X18	Y18	Z18	X19	Y19	Z19	X20	Y20	Z20	X21	Y21	Z21	X22	Y22	Z22	X23	Y23	Z23	X24	Y24	Z24	X25	Y25	Z25	X26	Y26	Z26	X27	Y27	Z27	X28	Y28	Z28	X29	Y29	Z29	X30	Y30	Z30	X31	Y31	Z31	X32	Y32	Z32	X33	Y33	Z33	X34	Y34	Z34	X35	Y35	Z35	X36	Y36	Z36	X37	Y37	Z37	X38	Y38	Z38	X39	Y39	Z39	X40	Y40	Z40	X41	Y41	Z41	X42	Y42	Z42	X43	Y43	Z43	X44	Y44	Z44	X45	Y45	Z45	X46	Y46	Z46	X47	Y47	Z47	X48	Y48	Z48	X49	Y49	Z49	X50	Y50	Z50	X51	Y51	Z51	X52	Y52	Z52	X53	Y53	Z53	

363	3.62	305.144775390625	1041.615234375	-215.2921752929688	295.42578125	1035.249755859375	-378.8302307128906	292.4940490722656	1105.453735351562	-303.8511962890625	513.7842407226562	1297.932861328125	-315.4210205078125	265.40966796875	1249.396484375	-307.1942749023438	310.0599060058594	1516.447387695312	-329.6829833984375	469.8052368164062	1423.123168945312	-324.2315673828125	260.6893920898438	1382.947875976562	-242.6651000976562	291.2378540039062	1472.019409179688	-425.2154541015625	393.4936828613281	1475.123657226562	-501.2657470703125	354.2805786132812	1349.40234375	-573.553955078125	332.800048828125	1133.398559570312	-591.2650756835938	283.6563720703125	1127.736450195312	-497.673095703125	397.1026306152344	872.9021606445312	-536.794677734375	316.0246887207031	866.806884765625	-572.5858764648438	333.1194152832031	1016.756713867188	-595.4002685546875	404.9804992675781	688.7463989257812	-514.233642578125	338.8794860839844	774.0684814453125	-571.6214599609375	406.4770812988281	777.278076171875	-549.7954711914062	394.1076965332031	1508.290893554688	-156.7587432861328	380.7101135253906	1440.519653320312	-81.34219360351562	328.3733215332031	1178.63720703125	-43.98139190673828	325.6439208984375	1144.738159179688	-138.0507202148438	435.8653259277344	908.2681274414062	-55.70441436767578	370.0906372070312	904.1920166015625	8.414054870605469	336.1627197265625	1103.870361328125	-23.36256790161133	435.1069946289062	721.637939453125	-59.70873260498047	457.7926635742188	796.3829956054688	-33.53546142578125	401.5570678710938	800.550048828125	15.1996545791626	370.0974731445312	1701.1474609375	-389.9375305175781	546.4014282226562	1703.477294921875	-260.5028381347656	550.4793090820312	1708.150512695312	-358.9293212890625	372.2424621582031	1689.998779296875	-245.9259033203125	395.6950073242188	942.0908203125	-489.8844299316406	423.10107421875	935.1412963867188	-119.6520919799805	523.6779174804688	968.9111938476562	-193.4401702880859	509.83544921875	991.153564453125	-428.4512329101562	576.1754150390625	529.6678466796875	-428.0876770019531	506.4860534667969	649.7553100585938	-470.9501037597656	531.3975830078125	30.81689643859863	-420.482177734375	534.2366333007812	279.0509948730469	-441.1274108886719	744.1015625	36.528076171875	-333.7436218261719	684.1073608398438	44.29203414916992	-323.595703125	656.7993774414062	32.50771713256836	-426.4308776855469	458.6214599609375	39.96908950805664	-372.5619201660156	395.1610717773438	494.2090148925781	-149.7326202392578	431.7471313476562	767.2845458984375	-124.8524398803711	18.56810760498047	143.5769195556641	-160.6035919189453	310.2770385742188	388.078369140625	-146.7408905029297	186.6897125244141	37.16941070556641	-239.5354156494141	142.1242828369141	67.28050231933594	-257.11572265625	130.73828125	46.15685272216797	-161.8375549316406	-23.8289852142334	188.3389129638672	-196.5654449462891	
364	3.63	313.9559631347656	1042.013916015625	-216.7643890380859	304.2242736816406	1036.384765625	-380.2681579589844	301.3929443359375	1106.46728515625	-305.5386047363281	522.6044311523438	1299.122436523438	-317.2869262695312	274.2913513183594	1250.25048828125	-309.269287109375	318.5438537597656	1517.343139648438	-331.8407287597656	478.3986206054688	1424.250732421875	-326.193603515625	269.2432861328125	1383.839233398438	-244.8432159423828	299.9210815429688	1472.852416992188	-427.3554077148438	402.2501831054688	1476.153076171875	-503.2952575683594	363.1679077148438	1350.534912109375	-575.821044921875	341.7506408691406	1134.56689453125	-593.9021606445312	292.4967041015625	1128.742553710938	-500.4559936523438	406.9472961425781	874.35986328125	-539.4105224609375	325.9491271972656	867.878173828125	-575.4146728515625	342.4269714355469	1017.913208007812	-598.1292114257812	415.7378540039062	690.2774047851562	-517.0521240234375	349.2647399902344	775.2567749023438	-574.4949951171875	416.8476257324219	778.8461303710938	-552.50439453125	402.4419555664062	1509.401489257812	-158.8620147705078	388.9374694824219	1441.741088867188	-83.4189453125	336.0030517578125	1180.08203125	-45.88630676269531	333.2682800292969	1146.122192382812	-139.9182891845703	442.4763488769531	909.2732543945312	-57.36714172363281	376.7879333496094	905.5529174804688	6.84633731842041	343.6163024902344	1105.324584960938	-25.18999481201172	440.6947937011719	722.6393432617188	-61.41010665893555	463.7872619628906	797.2350463867188	-35.27130889892578	407.7228393554688	801.73876953125	13.57097816467285	378.2457580566406	1702.066650390625	-392.1076965332031	554.39111328125	1704.809814453125	-262.4494934082031	558.5794677734375	1709.447021484375	-360.8429870605469	380.1895446777344	1690.954711914062	-248.0852661132812	404.1429138183594	943.4298095703125	-491.6438903808594	432.5128479003906	935.4852905273438	-121.6971282958984	532.6780395507812	970.0306396484375	-195.4859161376953	518.4884033203125	992.2433471679688	-430.4134216308594	580.9943237304688	529.18505859375	-429.7762145996094	512.3107299804688	649.9447631835938	-472.5670471191406	531.4243774414062	30.61356735229492	-420.7171630859375	536.3489990234375	278.9290466308594	-442.0084533691406	744.2022705078125	36.0958366394043	-333.9283752441406	684.2210693359375	44.21455001831055	-323.9538879394531	656.8799438476562	32.1439208984375	-426.7787170410156	458.6621398925781	39.91437530517578	-372.8602600097656	412.3442077636719	493.6546936035156	-149.9758148193359	443.5368041992188	767.76953125	-126.4212036132812	27.5285701751709	152.7709655761719	-159.7441253662109	326.5096740722656	388.3142700195312	-147.0473327636719	190.2530670166016	37.16869735717773	-238.7583312988281	146.7907257080078	70.17222595214844	-256.8062438964844	134.7627716064453	49.9282112121582	-161.2591400146484	-12.96363925933838	199.1544952392578	-195.7770233154297	
365	3.64	322.6266479492188	1042.311157226562	-218.093994140625	312.8061218261719	1037.434204101562	-381.5729675292969	310.171630859375	1107.4248046875	-307.0789489746094	531.2807006835938	1300.192626953125	-319.0724487304688	283.0453186035156	1251.048828125	-311.2501525878906	326.9746398925781	1518.185913085938	-333.9327087402344	486.9031677246094	1425.273681640625	-328.0706176757812	277.6886901855469	1384.691528320312	-246.9559631347656	308.5469970703125	1473.6240234375	-429.4404296875	410.9700927734375	1477.0859375	-505.2530212402344	372.0304870605469	1351.577514648438	-578.0349731445312	350.69873046875	1135.654541015625	-596.54443359375	301.2315673828125	1129.646118164062	-503.2972412109375	416.9117431640625	875.8094482421875	-542.0223999023438	336.0100402832031	868.863525390625	-578.2841796875	351.7909851074219	1018.99267578125	-600.87646484375	426.7401428222656	691.8131103515625	-519.8672485351562	359.8751831054688	776.3797607421875	-577.4129638671875	427.3821105957031	780.3839721679688	-555.197998046875	410.69091796875	1510.416381835938	-160.8817749023438	397.0644836425781	1442.850708007812	-85.41937255859375	343.6252136230469	1181.387329101562	-47.7166862487793	340.8553161621094	1147.366333007812	-141.7125701904297	449.2440795898438	910.2178344726562	-59.00091171264648	383.6561584472656	906.7998657226562	5.315627574920654	351.1059875488281	1106.638061523438	-26.94704818725586	446.6346740722656	723.591552734375	-63.02853393554688	470.0475769042969	798.0579223632812	-36.95750427246094	414.11669921875	802.849853515625	11.98462295532227	386.3279724121094	1702.87548828125	-394.2377014160156	562.3142700195312	1706.089721679688	-264.359375	566.6127319335938	1710.683227539062	-362.7328796386719	388.0782775878906	1691.81982421875	-250.2047729492188	412.3226623535156	944.6969604492188	-493.3103332519531	441.8411865234375	935.7470703125	-123.6411361694336	541.5322265625	971.0628051757812	-197.5037994384766	526.91162109375	993.2267456054688	-432.3538818359375	585.6094360351562	528.704345703125	-431.432861328125	517.9613037109375	650.1192016601562	-474.1401977539062	531.4358520507812	30.41032600402832	-420.9349365234375	538.3334350585938	278.7967224121094	-442.8872985839844	744.2508544921875	35.82192230224609	-334.0780639648438	684.2813110351562	44.18363189697266	-324.2698059082031	656.9298095703125	31.84158325195312	-427.0991821289062	458.676025390625	39.82518005371094	-373.1453857421875	429.642578125	493.197998046875	-150.3722686767578	455.3071899414062	768.2151489257812	-127.9428100585938	37.18715667724609	162.0233612060547	-159.0457000732422	342.9985656738281	388.6451721191406	-147.4950866699219	195.0757904052734	37.29408264160156	-237.4958038330078	152.4667510986328	73.39702606201172	-256.2385864257812	139.6879425048828	54.44200134277344	-160.4234466552734	-1.460447311401367	209.7055816650391	-195.2823181152344	
366	3.65	331.16943359375	1042.52880859375	-219.2998352050781	321.1741638183594	1038.382446289062	-382.7590942382812	318.8183288574219	1108.319458007812	-308.4724426269531	539.8050537109375	1301.147705078125	-320.7736206054688	291.6614990234375	1251.79931640625	-313.1236572265625	335.3411865234375	1518.978149414062	-335.9478149414062	495.3112487792969	1426.197387695312	-329.8551330566406	286.0224609375	1385.50634765625	-248.9809417724609	317.0951538085938	1474.336791992188	-431.4574279785156	419.6318969726562	1477.92724609375	-507.1315002441406	380.8536682128906	1352.527099609375	-580.1817016601562	359.660888671875	1136.65576171875	-599.1751098632812	309.8710327148438	1130.434204101562	-506.1759643554688	426.9896850585938	877.2373046875	-544.6323852539062	346.2014770507812	869.7637939453125	-581.1893920898438	361.2257080078125	1019.993957519531	-603.6294555664062	437.9318237304688	693.320068359375	-522.6655883789062	370.6875610351562	777.4329223632812	-580.3677368164062	438.0490417480469	781.8626098632812	-557.870361328125	418.8507385253906	1511.343017578125	-162.8150787353516	405.0871276855469	1443.85791015625	-87.33646392822266	351.2320251464844	1182.556762695312	-49.48444366455078	348.4308776855469	1148.477661132812	-143.4481811523438	456.1729431152344	911.1099853515625	-60.58711624145508	390.6632995605469	907.9324340820312	3.805225133895874	358.6093139648438	1107.81298828125	-28.64684295654297	452.9541015625	724.4979248046875	-64.54669189453125	476.5856628417969	798.8629150390625	-38.56315612792969	420.7340087890625	803.8829345703125	10.44284152984619	394.3501281738281	1703.582275390625	-396.3192443847656	570.1760864257812	1707.305786132812	-266.225830078125	574.5848999023438	1711.845703125	-364.5923767089844	395.9180297851562	1692.60400390625	-252.2754364013672	420.25146484375	945.86376953125	-494.8848266601562	451.0874633789062	935.9634399414062	-125.4789886474609	550.2528686523438	972.0196533203125	-199.4874572753906	535.1153564453125	994.0940551757812	-434.2608947753906	590.0559692382812	528.2125244140625	-433.0506286621094	523.4635620117188	650.2654418945312	-475.6641540527344	531.4422607421875	30.20310401916504	-421.1363220214844	540.229248046875	278.64306640625	-443.7680969238281	744.27197265625	35.65277481079102	-334.2041625976562	684.3133544921875	44.183837890625	-324.5496520996094	656.9601440429688	31.57621383666992	-427.3985595703125	458.6725463867188	39.71891784667969	-373.4148254394531	446.9711303710938	492.8845520019531	-150.9458465576172	467.0450439453125	768.6566772460938	-129.4267883300781	47.56583023071289	171.1081848144531	-158.5806884765625	359.6417236328125	389.1180419921875	-148.0733947753906	201.2890625	37.59620666503906	-235.6820220947266	159.3857116699219	76.85944366455078	-255.3494110107422	145.7149658203125	59.55904006958008	-159.2963714599609	10.6465425491333	219.7361297607422	-195.1867218017578	
